<svg width="22" height="24" viewBox="0 0 22 24" fill="none" xmlns="http://www.w3.org/2000/svg">
<path d="M19.1034 4.60999C18.6352 4.099 18.0793 3.69364 17.4674 3.41708C16.8556 3.14052 16.1998 2.99817 15.5375 2.99817C14.8752 2.99817 14.2195 3.14052 13.6076 3.41708C12.9958 3.69364 12.4399 4.099 11.9717 4.60999L11 5.66999L10.0284 4.60999C9.08264 3.5783 7.79997 2.9987 6.46253 2.9987C5.12508 2.9987 3.84241 3.5783 2.89669 4.60999C1.95098 5.64169 1.41968 7.04096 1.41968 8.49999C1.41968 9.95903 1.95098 11.3583 2.89669 12.39L3.86836 13.45L11 21.23L18.1317 13.45L19.1034 12.39C19.5718 11.8792 19.9434 11.2728 20.1969 10.6053C20.4504 9.93789 20.5809 9.22248 20.5809 8.49999C20.5809 7.77751 20.4504 7.0621 20.1969 6.39464C19.9434 5.72718 19.5718 5.12075 19.1034 4.60999V4.60999Z" stroke="black" stroke-width="2" stroke-linecap="round" stroke-linejoin="round"/>
</svg>
