<svg width="25" height="25" viewBox="0 0 25 25" fill="none" xmlns="http://www.w3.org/2000/svg">
<path d="M19.7917 3.125H5.20833C4.05774 3.125 3.125 4.05774 3.125 5.20833V19.7917C3.125 20.9423 4.05774 21.875 5.20833 21.875H19.7917C20.9423 21.875 21.875 20.9423 21.875 19.7917V5.20833C21.875 4.05774 20.9423 3.125 19.7917 3.125Z" stroke="black" stroke-width="2" stroke-linecap="round" stroke-linejoin="round"/>
<path d="M8.85425 10.4166C9.71719 10.4166 10.4167 9.71707 10.4167 8.85413C10.4167 7.99118 9.71719 7.29163 8.85425 7.29163C7.9913 7.29163 7.29175 7.99118 7.29175 8.85413C7.29175 9.71707 7.9913 10.4166 8.85425 10.4166Z" stroke="black" stroke-width="2" stroke-linecap="round" stroke-linejoin="round"/>
<path d="M21.8749 15.625L16.6666 10.4166L5.20825 21.875" stroke="black" stroke-width="2" stroke-linecap="round" stroke-linejoin="round"/>
</svg>
