<svg width="54" height="54" viewBox="0 0 54 54" fill="none" xmlns="http://www.w3.org/2000/svg">
<path d="M24.75 9H9C7.80653 9 6.66193 9.47411 5.81802 10.318C4.97411 11.1619 4.5 12.3065 4.5 13.5V45C4.5 46.1935 4.97411 47.3381 5.81802 48.182C6.66193 49.0259 7.80653 49.5 9 49.5H40.5C41.6935 49.5 42.8381 49.0259 43.682 48.182C44.5259 47.3381 45 46.1935 45 45V29.25" stroke="#5000CA" stroke-width="2" stroke-linecap="round" stroke-linejoin="round"/>
<path d="M41.625 5.62502C42.5201 4.72992 43.7341 4.22705 45 4.22705C46.2659 4.22705 47.4799 4.72992 48.375 5.62502C49.2701 6.52013 49.773 7.73415 49.773 9.00002C49.773 10.2659 49.2701 11.4799 48.375 12.375L27 33.75L18 36L20.25 27L41.625 5.62502Z" stroke="#5000CA" stroke-width="2" stroke-linecap="round" stroke-linejoin="round"/>
</svg>
