<svg width="21" height="22" viewBox="0 0 21 22" fill="none" xmlns="http://www.w3.org/2000/svg">
<path d="M18.112 11.022C18.115 12.1757 17.849 13.3139 17.3358 14.3437C16.7273 15.5778 15.7917 16.6158 14.634 17.3414C13.4763 18.0671 12.1422 18.4517 10.781 18.4522C9.6426 18.4552 8.51964 18.1857 7.50354 17.6655L2.5874 19.3264L4.22611 14.3437C3.71288 13.3139 3.44691 12.1757 3.44988 11.022C3.45041 9.64234 3.8299 8.29012 4.54585 7.11675C5.2618 5.94338 6.28593 4.9952 7.50354 4.37843C8.51964 3.85825 9.6426 3.58869 10.781 3.5917H11.2122C13.0099 3.69222 14.7079 4.46127 15.981 5.7516C17.2541 7.04193 18.0129 8.76286 18.112 10.5849V11.022Z" stroke="black" stroke-width="2" stroke-linecap="round" stroke-linejoin="round"/>
</svg>
