<svg width="2133" height="273" viewBox="0 0 2133 273" fill="none" xmlns="http://www.w3.org/2000/svg">
<rect x="419" y="189" width="25" height="25" fill="#C4C4C4" fill-opacity="0.3"/>
<rect x="18" y="81" width="25" height="25" fill="#C4C4C4" fill-opacity="0.3"/>
<rect x="728.063" y="85" width="25" height="25" transform="rotate(18.8155 728.063 85)" fill="#5000CA" fill-opacity="0.3"/>
<rect x="648.063" y="136" width="25" height="25" transform="rotate(18.8155 648.063 136)" fill="#5000CA" fill-opacity="0.3"/>
<rect x="863.063" y="88" width="25" height="25" transform="rotate(18.8155 863.063 88)" fill="#5000CA" fill-opacity="0.3"/>
<rect x="18.2819" y="198" width="25" height="25" transform="rotate(46.9935 18.2819 198)" fill="#5ED394"/>
<path d="M812 165L824.99 187.5H799.01L812 165Z" fill="#C4C4C4" fill-opacity="0.3"/>
<path d="M774 34L786.99 56.5H761.01L774 34Z" fill="#C4C4C4" fill-opacity="0.3"/>
<path d="M340.555 144.423L361.929 159.193L338.45 170.318L340.555 144.423Z" fill="#5000CA" fill-opacity="0.3"/>
<path d="M147.555 140.423L168.929 155.193L145.45 166.318L147.555 140.423Z" fill="#5000CA" fill-opacity="0.3"/>
<path d="M855.555 239.423L876.929 254.193L853.45 265.318L855.555 239.423Z" fill="#5000CA" fill-opacity="0.3"/>
<path d="M1156.56 74.423L1177.93 89.1935L1154.45 100.318L1156.56 74.423Z" fill="#5000CA" fill-opacity="0.3"/>
<path d="M631.632 71.5018L622.718 95.9054L606.041 75.9837L631.632 71.5018Z" fill="#5ED394"/>
<path d="M764.632 204.502L755.718 228.905L739.041 208.984L764.632 204.502Z" fill="#5ED394"/>
<path d="M1035.63 123.502L1026.72 147.905L1010.04 127.984L1035.63 123.502Z" fill="#5ED394"/>
<path d="M912.632 14.5018L903.718 38.9054L887.041 18.9837L912.632 14.5018Z" fill="#5ED394"/>
<path d="M1450.63 113.502L1441.72 137.905L1425.04 117.984L1450.63 113.502Z" fill="#5ED394"/>
<circle cx="964.5" cy="73.5" r="12.5" fill="#C4C4C4" fill-opacity="0.3"/>
<path d="M324.5 84.5C324.5 91.4036 318.904 97 312 97C305.096 97 299.5 91.4036 299.5 84.5C299.5 77.5964 305.096 72 312 72C318.904 72 324.5 77.5964 324.5 84.5Z" fill="#C4C4C4" fill-opacity="0.3"/>
<circle cx="550.5" cy="145.5" r="12.5" fill="#C4C4C4" fill-opacity="0.3"/>
<circle cx="513.5" cy="48.5" r="12.5" fill="#22194D" fill-opacity="0.3"/>
<circle cx="204.5" cy="78.5" r="12.5" fill="#22194D" fill-opacity="0.3"/>
<circle cx="287.5" cy="210.5" r="12.5" fill="#22194D" fill-opacity="0.3"/>
<circle cx="1057.5" cy="228.5" r="12.5" fill="#22194D" fill-opacity="0.3"/>
<circle cx="525.5" cy="224.5" r="12.5" fill="#5ED394"/>
<circle cx="456.5" cy="121.5" r="12.5" fill="#5ED394"/>
<circle cx="104.5" cy="28.5" r="12.5" fill="#5ED394"/>
<path d="M146 238L149.368 248.365H160.266L151.449 254.771L154.817 265.135L146 258.729L137.183 265.135L140.551 254.771L131.734 248.365H142.632L146 238Z" fill="#5000CA" fill-opacity="0.3"/>
<path d="M382 21L385.368 31.3647H396.266L387.449 37.7705L390.817 48.1353L382 41.7295L373.183 48.1353L376.551 37.7705L367.734 31.3647H378.632L382 21Z" fill="#5000CA" fill-opacity="0.3"/>
<rect x="2012" y="159" width="25" height="25" fill="#C4C4C4" fill-opacity="0.3"/>
<rect x="1683" y="83" width="25" height="25" fill="#C4C4C4" fill-opacity="0.3"/>
<rect x="1646.28" y="198" width="25" height="25" transform="rotate(46.9935 1646.28 198)" fill="#5ED394"/>
<path d="M1913.56 142.423L1934.93 157.193L1911.45 168.318L1913.56 142.423Z" fill="#5000CA" fill-opacity="0.3"/>
<path d="M1775.56 140.423L1796.93 155.193L1773.45 166.318L1775.56 140.423Z" fill="#5000CA" fill-opacity="0.3"/>
<path d="M1952 61.5C1952 68.4036 1946.4 74 1939.5 74C1932.6 74 1927 68.4036 1927 61.5C1927 54.5964 1932.6 49 1939.5 49C1946.4 49 1952 54.5964 1952 61.5Z" fill="#C4C4C4" fill-opacity="0.3"/>
<circle cx="2120.5" cy="207.5" r="12.5" fill="#C4C4C4" fill-opacity="0.3"/>
<circle cx="2104.5" cy="99.5" r="12.5" fill="#22194D" fill-opacity="0.3"/>
<circle cx="1832.5" cy="78.5" r="12.5" fill="#22194D" fill-opacity="0.3"/>
<circle cx="1882.5" cy="215.5" r="12.5" fill="#22194D" fill-opacity="0.3"/>
<circle cx="1994.5" cy="243.5" r="12.5" fill="#5ED394"/>
<circle cx="2019.5" cy="100.5" r="12.5" fill="#5ED394"/>
<circle cx="1732.5" cy="28.5" r="12.5" fill="#5ED394"/>
<path d="M1774 238L1777.37 248.365H1788.27L1779.45 254.771L1782.82 265.135L1774 258.729L1765.18 265.135L1768.55 254.771L1759.73 248.365H1770.63L1774 238Z" fill="#5000CA" fill-opacity="0.3"/>
<path d="M1997 0L2000.37 10.3647H2011.27L2002.45 16.7705L2005.82 27.1353L1997 20.7295L1988.18 27.1353L1991.55 16.7705L1982.73 10.3647H1993.63L1997 0Z" fill="#5000CA" fill-opacity="0.3"/>
<rect x="419" y="189" width="25" height="25" fill="#C4C4C4" fill-opacity="0.3"/>
<rect x="18" y="81" width="25" height="25" fill="#C4C4C4" fill-opacity="0.3"/>
<rect x="18.2819" y="198" width="25" height="25" transform="rotate(46.9935 18.2819 198)" fill="#5ED394"/>
<path d="M340.555 144.423L361.929 159.193L338.45 170.318L340.555 144.423Z" fill="#5000CA" fill-opacity="0.3"/>
<path d="M147.555 140.423L168.929 155.193L145.45 166.318L147.555 140.423Z" fill="#5000CA" fill-opacity="0.3"/>
<path d="M324.5 84.5C324.5 91.4036 318.904 97 312 97C305.096 97 299.5 91.4036 299.5 84.5C299.5 77.5964 305.096 72 312 72C318.904 72 324.5 77.5964 324.5 84.5Z" fill="#C4C4C4" fill-opacity="0.3"/>
<circle cx="550.5" cy="145.5" r="12.5" fill="#C4C4C4" fill-opacity="0.3"/>
<circle cx="513.5" cy="48.5" r="12.5" fill="#22194D" fill-opacity="0.3"/>
<circle cx="204.5" cy="78.5" r="12.5" fill="#22194D" fill-opacity="0.3"/>
<circle cx="287.5" cy="210.5" r="12.5" fill="#22194D" fill-opacity="0.3"/>
<circle cx="525.5" cy="224.5" r="12.5" fill="#5ED394"/>
<circle cx="456.5" cy="121.5" r="12.5" fill="#5ED394"/>
<circle cx="104.5" cy="28.5" r="12.5" fill="#5ED394"/>
<path d="M146 238L149.368 248.365H160.266L151.449 254.771L154.817 265.135L146 258.729L137.183 265.135L140.551 254.771L131.734 248.365H142.632L146 238Z" fill="#5000CA" fill-opacity="0.3"/>
<path d="M382 21L385.368 31.3647H396.266L387.449 37.7705L390.817 48.1353L382 41.7295L373.183 48.1353L376.551 37.7705L367.734 31.3647H378.632L382 21Z" fill="#5000CA" fill-opacity="0.3"/>
<rect x="1707" y="168" width="25" height="25" fill="#C4C4C4" fill-opacity="0.3"/>
<rect x="1546" y="81" width="25" height="25" fill="#C4C4C4" fill-opacity="0.3"/>
<rect x="1228" y="41" width="25" height="25" fill="#C4C4C4" fill-opacity="0.3"/>
<rect x="1229.28" y="217" width="25" height="25" transform="rotate(46.9935 1229.28 217)" fill="#5ED394"/>
<path d="M1532.56 138.423L1553.93 153.193L1530.45 164.318L1532.56 138.423Z" fill="#5000CA" fill-opacity="0.3"/>
<path d="M1609.56 239.423L1630.93 254.193L1607.45 265.318L1609.56 239.423Z" fill="#5000CA" fill-opacity="0.3"/>
<path d="M1346.56 134.423L1367.93 149.193L1344.45 160.318L1346.56 134.423Z" fill="#5000CA" fill-opacity="0.3"/>
<path d="M1480 51.5C1480 58.4036 1474.4 64 1467.5 64C1460.6 64 1455 58.4036 1455 51.5C1455 44.5964 1460.6 39 1467.5 39C1474.4 39 1480 44.5964 1480 51.5Z" fill="#C4C4C4" fill-opacity="0.3"/>
<circle cx="1358.5" cy="52.5" r="12.5" fill="#22194D" fill-opacity="0.3"/>
<circle cx="1459.5" cy="201.5" r="12.5" fill="#22194D" fill-opacity="0.3"/>
<circle cx="1531.5" cy="253.5" r="12.5" fill="#22194D" fill-opacity="0.3"/>
<circle cx="1635.5" cy="141.5" r="12.5" fill="#5ED394"/>
<path d="M1358 226L1361.37 236.365H1372.27L1363.45 242.771L1366.82 253.135L1358 246.729L1349.18 253.135L1352.55 242.771L1343.73 236.365H1354.63L1358 226Z" fill="#5000CA" fill-opacity="0.3"/>
<path d="M1574 15L1577.37 25.3647H1588.27L1579.45 31.7705L1582.82 42.1353L1574 35.7295L1565.18 42.1353L1568.55 31.7705L1559.73 25.3647H1570.63L1574 15Z" fill="#5000CA" fill-opacity="0.3"/>
<path d="M1243 133L1246.37 143.365H1257.27L1248.45 149.771L1251.82 160.135L1243 153.729L1234.18 160.135L1237.55 149.771L1228.73 143.365H1239.63L1243 133Z" fill="#5000CA" fill-opacity="0.3"/>
<path d="M950 159L953.368 169.365H964.266L955.449 175.771L958.817 186.135L950 179.729L941.183 186.135L944.551 175.771L935.734 169.365H946.632L950 159Z" fill="#5000CA" fill-opacity="0.3"/>
<path d="M672 235L675.368 245.365H686.266L677.449 251.771L680.817 262.135L672 255.729L663.183 262.135L666.551 251.771L657.734 245.365H668.632L672 235Z" fill="#22194D" fill-opacity="0.3"/>
<path d="M1128 148L1131.37 158.365H1142.27L1133.45 164.771L1136.82 175.135L1128 168.729L1119.18 175.135L1122.55 164.771L1113.73 158.365H1124.63L1128 148Z" fill="#22194D" fill-opacity="0.3"/>
<path d="M1060 51L1063.37 61.3647H1074.27L1065.45 67.7705L1068.82 78.1353L1060 71.7295L1051.18 78.1353L1054.55 67.7705L1045.73 61.3647H1056.63L1060 51Z" fill="#5ED394"/>
</svg>
