<svg width="22" height="24" viewBox="0 0 22 24" fill="none" xmlns="http://www.w3.org/2000/svg">
<path d="M16.5 8C18.0188 8 19.25 6.65685 19.25 5C19.25 3.34315 18.0188 2 16.5 2C14.9812 2 13.75 3.34315 13.75 5C13.75 6.65685 14.9812 8 16.5 8Z" stroke="black" stroke-width="2" stroke-linecap="round" stroke-linejoin="round"/>
<path d="M5.5 15C7.01878 15 8.25 13.6569 8.25 12C8.25 10.3431 7.01878 9 5.5 9C3.98122 9 2.75 10.3431 2.75 12C2.75 13.6569 3.98122 15 5.5 15Z" stroke="black" stroke-width="2" stroke-linecap="round" stroke-linejoin="round"/>
<path d="M16.5 22C18.0188 22 19.25 20.6569 19.25 19C19.25 17.3431 18.0188 16 16.5 16C14.9812 16 13.75 17.3431 13.75 19C13.75 20.6569 14.9812 22 16.5 22Z" stroke="black" stroke-width="2" stroke-linecap="round" stroke-linejoin="round"/>
<path d="M7.87427 13.51L14.1351 17.49" stroke="black" stroke-width="2" stroke-linecap="round" stroke-linejoin="round"/>
<path d="M14.1259 6.51001L7.87427 10.49" stroke="black" stroke-width="2" stroke-linecap="round" stroke-linejoin="round"/>
</svg>
