<svg width="16" height="15" viewBox="0 0 16 15" fill="none" xmlns="http://www.w3.org/2000/svg">
<path d="M12.7469 1.875H3.99695C3.30659 1.875 2.74695 2.43464 2.74695 3.125V11.875C2.74695 12.5654 3.30659 13.125 3.99695 13.125H12.7469C13.4373 13.125 13.9969 12.5654 13.9969 11.875V3.125C13.9969 2.43464 13.4373 1.875 12.7469 1.875Z" stroke="black" stroke-width="2" stroke-linecap="round" stroke-linejoin="round"/>
<path d="M6.18445 6.25C6.70221 6.25 7.12195 5.83027 7.12195 5.3125C7.12195 4.79473 6.70221 4.375 6.18445 4.375C5.66668 4.375 5.24695 4.79473 5.24695 5.3125C5.24695 5.83027 5.66668 6.25 6.18445 6.25Z" stroke="black" stroke-width="2" stroke-linecap="round" stroke-linejoin="round"/>
<path d="M13.9969 9.375L10.8719 6.25L3.99695 13.125" stroke="black" stroke-width="2" stroke-linecap="round" stroke-linejoin="round"/>
</svg>
